<?xml version="1.0" encoding="UTF-8"?>
<!DOCTYPE svg PUBLIC "-//W3C//DTD SVG 1.1//EN" "http://www.w3.org/Graphics/SVG/1.1/DTD/svg11.dtd">
<!-- Creator: CorelDRAW -->
<svg xmlns="http://www.w3.org/2000/svg" xml:space="preserve" width="7.33333in" height="7.33333in" style="shape-rendering:geometricPrecision; text-rendering:geometricPrecision; image-rendering:optimizeQuality; fill-rule:evenodd; clip-rule:evenodd"
viewBox="0 0 7.33333 7.33333"
 xmlns:xlink="http://www.w3.org/1999/xlink">
 <defs>
  <style type="text/css">
   <![CDATA[
    .fil0 {fill:black}
    .fil1 {fill:white;fill-rule:nonzero}
   ]]>
  </style>
 </defs>
 <rect class="fil0" width="7.33333" height="7.33333" rx="1.28" ry="1.28"/>
 <g id="Layer_x0020_1">
  <metadata id="CorelCorpID_0Corel-Layer"/>
  <path class="fil1" d="M1.95076 2.62369l3.43182 0c0.0441811,0 0.08,0.0358189 0.08,0.08l0 1.82043c0,0.0441811 -0.0358189,0.08 -0.08,0.08l-2.65464 0c-0.0441811,0 -0.08,-0.0358189 -0.08,-0.08 0,-0.0046378 0.000397638,-0.0091811 0.00115748,-0.0136024l0.039437 -0.337882 -0.568642 0.394402c-0.0153071,0.0241181 -0.0416299,0.0374094 -0.0685472,0.0370827l-0.100583 0c-0.0441811,0 -0.08,-0.0358189 -0.08,-0.08l0 -1.82043c0,-0.0441811 0.0358189,-0.08 0.08,-0.08zm3.35182 0.16l-3.27182 0 0 1.65106 0.707035 -0.49039c0.0161811,-0.0132047 0.0374764,-0.0200984 0.0598543,-0.0174882 0.0438819,0.00512205 0.0753071,0.0448543 0.070185,0.0887362l-0.000110236 -1.1811e-005 -0.0500197 0.428524 2.48487 0 0 -1.66043z"/>
  <path class="fil1" d="M2.68853 4.17262l-0.675362 0.468421 0.581496 0.335732 0.0938661 -0.804154zm-0.824236 0.474626l-0.045311 -0.065626 0.918811 -0.637276c0.0161811,-0.0132047 0.0374764,-0.0200984 0.0598543,-0.0174882 0.0438819,0.00512205 0.0753071,0.0448543 0.070185,0.0887362l-0.000110236 -1.1811e-005 -0.127921 1.0959c-0.000720472,0.012 -0.00416142,0.0240197 -0.0105787,0.0351378 -0.0220906,0.0382638 -0.0710197,0.051374 -0.109283,0.0292835l0.04 -0.0692835 -0.04 0.069063 -0.790693 -0.456512c-0.0119331,-0.00580315 -0.0225906,-0.0146496 -0.030689,-0.0263268 -0.0251811,-0.0363031 -0.0161614,-0.0861496 0.0201417,-0.111331l0.0455945 0.0657362z"/>
  <path class="fil1" d="M2.33118 4.91693c0.0220906,-0.0381417 0.00907874,-0.0869724 -0.029063,-0.109063 -0.0381417,-0.0220906 -0.0869724,-0.00907874 -0.109063,0.029063l-0.321378 0.556642c-0.0220906,0.0381417 -0.00907874,0.0869724 0.029063,0.109063 0.0381417,0.0220906 0.0869724,0.00907874 0.109063,-0.029063l0.321378 -0.556642z"/>
  <path class="fil1" d="M3.03433 1.81986c0,-0.0441811 -0.0358189,-0.08 -0.08,-0.08 -0.0441811,0 -0.08,0.0358189 -0.08,0.08l0 0.633189c0,0.0441811 0.0358189,0.08 0.08,0.08 0.0441811,0 0.08,-0.0358189 0.08,-0.08l0 -0.633189z"/>
  <path class="fil1" d="M3.74667 1.18667c0,-0.0441811 -0.0358189,-0.08 -0.08,-0.08 -0.0441811,0 -0.08,0.0358189 -0.08,0.08l0 1.26638c0,0.0441811 0.0358189,0.08 0.08,0.08 0.0441811,0 0.08,-0.0358189 0.08,-0.08l0 -1.26638z"/>
  <path class="fil1" d="M4.459 1.81986c0,-0.0441811 -0.0358189,-0.08 -0.08,-0.08 -0.0441811,0 -0.08,0.0358189 -0.08,0.08l0 0.633189c0,0.0441811 0.0358189,0.08 0.08,0.08 0.0441811,0 0.08,-0.0358189 0.08,-0.08l0 -0.633189z"/>
  <path class="fil1" d="M3.03433 4.88028c0,-0.0441811 -0.0358189,-0.08 -0.08,-0.08 -0.0441811,0 -0.08,0.0358189 -0.08,0.08l0 0.633189c0,0.0441811 0.0358189,0.08 0.08,0.08 0.0441811,0 0.08,-0.0358189 0.08,-0.08l0 -0.633189z"/>
  <path class="fil1" d="M3.74667 4.88028c0,-0.0441811 -0.0358189,-0.08 -0.08,-0.08 -0.0441811,0 -0.08,0.0358189 -0.08,0.08l0 1.26638c0,0.0441811 0.0358189,0.08 0.08,0.08 0.0441811,0 0.08,-0.0358189 0.08,-0.08l0 -1.26638z"/>
  <path class="fil1" d="M4.459 4.88028c0,-0.0441811 -0.0358189,-0.08 -0.08,-0.08 -0.0441811,0 -0.08,0.0358189 -0.08,0.08l0 0.633189c0,0.0441811 0.0358189,0.08 0.08,0.08 0.0441811,0 0.08,-0.0358189 0.08,-0.08l0 -0.633189z"/>
  <path class="fil1" d="M2.63622 3.31427l0.235559 0c0.0466457,0 0.0814921,0.00192126 0.104402,0.00589764 0.0229134,0.00384252 0.0433543,0.011937 0.0614646,0.0242835 0.0181063,0.0123465 0.033063,0.0286732 0.0451339,0.049252 0.0120748,0.0204409 0.0181102,0.0434921 0.0181102,0.0688701 0,0.0275748 -0.00740945,0.0529567 -0.0222244,0.0760039 -0.0149567,0.0230512 -0.035122,0.0403346 -0.0605039,0.0518622 0.0358071,0.0104252 0.0635197,0.0282598 0.0827283,0.0533661 0.0193425,0.0252441 0.0289488,0.054878 0.0289488,0.0889016 0,0.026752 -0.00617323,0.0528189 -0.0186614,0.0781969 -0.0124843,0.0252441 -0.0294961,0.0455512 -0.0510354,0.0606417 -0.0215354,0.0150906 -0.0481535,0.0244173 -0.0798425,0.0279843 -0.0197559,0.00205906 -0.0676378,0.00343307 -0.143504,0.00398031l-0.200575 0 0 -0.58924zm0.119083 0.0980906l0 0.136232 0.0779252 0c0.0463701,0 0.0751811,-0.000685039 0.0864291,-0.00205512 0.0203071,-0.00233465 0.0363583,-0.00933071 0.0480197,-0.0209921 0.0116614,-0.0116614 0.0174213,-0.0270276 0.0174213,-0.0460984 0,-0.0182441 -0.00493701,-0.033063 -0.0149528,-0.0444488 -0.0101535,-0.0113858 -0.0251063,-0.018248 -0.0448622,-0.0205787 -0.0117992,-0.00137008 -0.045685,-0.00205906 -0.101657,-0.00205906l-0.0683228 0zm0 0.234327l0 0.157496 0.110028 0c0.0429409,0 0.0701063,-0.00109843 0.0816299,-0.00356693 0.0176969,-0.00315748 0.0321024,-0.0111142 0.0432165,-0.0234606 0.0111102,-0.0124843 0.0167362,-0.0292205 0.0167362,-0.0500748 0,-0.0176969 -0.00438976,-0.0326535 -0.0128976,-0.045 -0.00864173,-0.0123465 -0.0209882,-0.0214016 -0.0371772,-0.0270276 -0.016189,-0.00562205 -0.0514488,-0.00836614 -0.1055,-0.00836614l-0.0960354 0zm0.702972 -0.332417l0.118945 0 0 0.31911c0,0.050622 0.00151181,0.0835472 0.00438976,0.0985039 0.00507874,0.0241457 0.0172874,0.0434882 0.0363583,0.0580315 0.0192047,0.0146772 0.0454094,0.0219488 0.0786102,0.0219488 0.033748,0 0.0592677,-0.00685827 0.0764173,-0.0207165 0.0171457,-0.0137165 0.027437,-0.0307283 0.0308661,-0.0507598 0.00356693,-0.0201654 0.0052126,-0.0535039 0.0052126,-0.10015l0 -0.325969 0.118949 0 0 0.309504c0,0.0707913 -0.00315748,0.120732 -0.0096063,0.149953 -0.00644882,0.0292205 -0.0182441,0.0537795 -0.0355315,0.0739449 -0.0172874,0.0200315 -0.0404724,0.0360827 -0.0692835,0.0480197 -0.0289449,0.0119331 -0.066811,0.0178346 -0.113457,0.0178346 -0.056248,0 -0.0989173,-0.00644882 -0.128,-0.0194803 -0.0290866,-0.0130354 -0.0519961,-0.0299094 -0.0688701,-0.050626 -0.016874,-0.0207165 -0.0279882,-0.0425276 -0.0333386,-0.0653031 -0.0078189,-0.033748 -0.0116614,-0.0835512 -0.0116614,-0.149539l0 -0.314307zm0.963776 0.58924l0 -0.248043 -0.215803 -0.341197 0.139528 0 0.138701 0.233091 0.135819 -0.233091 0.137055 0 -0.216626 0.34202 0 0.24722 -0.118673 0z"/>
 </g>
</svg>
